<?xml version="1.0" encoding="UTF-8" standalone="no"?>
<!-- Created with Inkscape (http://www.inkscape.org/) -->

<svg
   width="162.45416mm"
   height="153.72292mm"
   viewBox="0 0 162.45416 153.72292"
   version="1.1"
   id="svg1"
   xml:space="preserve"
   xmlns="http://www.w3.org/2000/svg"
   xmlns:svg="http://www.w3.org/2000/svg"><defs
     id="defs1" /><g
     id="layer1"
     transform="translate(-23.678926,-71.638542)"><path
       style="fill:#000000"
       d="m 167.13601,166.83562 c -0.74163,-0.74162 -0.0202,-1.99238 0.96827,-1.67866 0.66683,0.21164 0.9019,0.83994 0.55605,1.48617 -0.30785,0.57523 -1.04811,0.66871 -1.52432,0.19249 z"
       id="path33" /><path
       style="fill:#000000"
       d="m 163.43184,176.88979 c -0.74163,-0.74163 -0.0202,-1.99238 0.96828,-1.67866 0.66682,0.21164 0.9019,0.83993 0.55605,1.48616 -0.30786,0.57523 -1.04811,0.66872 -1.52433,0.1925 z"
       id="path26" /><path
       style="fill:#000000"
       d="m 157.87559,186.67937 c -0.74163,-0.74162 -0.0202,-1.99238 0.96828,-1.67866 0.66682,0.21164 0.9019,0.83994 0.55605,1.48617 -0.30786,0.57523 -1.04811,0.66871 -1.52433,0.19249 z"
       id="path25" /><path
       style="fill:#000000"
       d="m 151.7189,195.69896 c -1.19281,-0.70987 -1.29559,-1.62204 -1.30456,-2.45094 -0.0159,-1.47271 1.18989,-2.23346 2.23277,-2.42911 1.00617,-0.18875 2.06962,0.0779 2.78647,1.19039 0.18454,0.2864 0.31208,0.80679 0.27243,1.56124 -0.0538,1.02371 -0.526,1.52879 -0.76625,1.72922 -1.05125,0.87701 -2.34741,0.91902 -3.22086,0.3992 z"
       id="path24" /><path
       style="fill:#000000"
       d="m 145.44017,200.43771 c -0.74162,-0.74163 -0.0202,-1.99239 0.96828,-1.67866 0.66682,0.21164 0.9019,0.83993 0.55605,1.48616 -0.30786,0.57523 -1.04811,0.66871 -1.52433,0.1925 z"
       id="path23" /><path
       style="fill:#000000"
       d="m 138.03184,205.72937 c -0.74163,-0.74162 -0.0202,-1.99238 0.96828,-1.67866 0.66682,0.21164 0.9019,0.83994 0.55605,1.48616 -0.30786,0.57524 -1.04811,0.66872 -1.52433,0.1925 z"
       id="path22" /><path
       style="fill:#000000"
       d="m 129.56517,209.96271 c -0.74162,-0.74163 -0.0202,-1.99239 0.96828,-1.67866 0.66682,0.21164 0.9019,0.83993 0.55605,1.48616 -0.30786,0.57523 -1.04811,0.66871 -1.52433,0.1925 z"
       id="path21" /><path
       id="path1"
       style="fill:#000000"
       d="m 104.01562,81.204366 c -14.390225,0.05506 -28.951144,4.96409 -40.493648,13.722677 -3.751896,2.846983 -4.653463,3.763059 -4.653463,4.726843 0,1.065054 0.818012,1.882574 1.883606,1.882574 0.63036,0 1.395867,-0.45996 3.241146,-1.947169 15.146829,-12.207656 34.224208,-16.917611 53.154899,-13.12323 9.18568,1.841136 17.94124,5.808272 25.82736,11.702128 3.26968,2.443661 9.68635,8.860331 12.13001,12.130011 4.26222,5.70296 7.64682,12.12698 9.82007,18.63814 1.0197,3.05506 2.42208,9.00126 2.42208,10.27017 0,0.64593 -3.85607,6.61214 -6.34845,9.82266 -15.95487,20.55189 -40.13277,38.42701 -66.02233,48.81149 -6.552668,2.62832 -15.373514,5.28527 -20.292302,6.11177 l -1.932698,0.32453 -2.245341,-1.40302 c -4.046032,-2.52789 -7.211547,-5.0892 -11.114567,-8.99221 -5.735503,-5.73551 -9.957264,-11.75985 -13.047266,-18.61902 -9.999498,-22.19685 -6.673581,-47.64399 8.724532,-66.74942 2.125084,-2.63672 2.420305,-3.59328 1.418001,-4.59558 -0.901266,-0.90127 -2.02668,-0.69303 -3.216858,0.59531 -4.590492,4.9691 -9.554512,13.34799 -12.344466,20.83594 -2.910958,7.81271 -4.116162,14.69572 -4.123262,23.54792 -0.0059,7.37061 0.611618,12.06444 2.446879,18.59989 l 0.505395,1.79938 -1.398364,3.09542 c -1.797891,3.98132 -3.108389,7.76887 -3.878316,11.20706 -0.49338,2.20324 -0.61001,3.48472 -0.59738,6.57325 0.01421,3.47564 0.08454,4.03552 0.745174,5.95312 0.922115,2.6766 1.767357,4.12649 3.455603,5.9278 2.778559,2.96466 6.792211,4.95738 12.386324,6.1495 3.695071,0.78742 11.651672,0.84284 16.821713,0.1173 l 3.526399,-0.49454 4.146517,2.0066 c 7.521929,3.64017 14.557664,5.61427 23.243543,6.52156 3.17644,0.3318 12.03186,0.11903 15.4311,-0.37052 4.34179,-0.62528 7.87111,-1.48674 8.37572,-2.04432 0.63322,-0.69971 0.21236,-2.30836 -0.74415,-2.84323 -0.63753,-0.35652 -1.05638,-0.32716 -4.49791,0.31832 -13.45467,2.52351 -26.553164,1.05357 -38.431765,-4.31291 l -1.298628,-0.58653 3.944462,-1.13481 c 17.4957,-5.03331 35.749731,-14.17573 51.966851,-26.02736 12.91344,-9.43726 25.51968,-21.85029 33.43052,-32.91788 1.41646,-1.98167 1.48396,-2.03671 1.6552,-1.35444 0.0982,0.39119 0.1163,2.78122 0.0403,5.3113 -0.12854,4.28092 -0.10222,4.64554 0.37879,5.25704 0.63902,0.81239 1.99271,0.8832 2.89647,0.15142 l 0.62476,-0.5054 -0.0109,-6.17533 c -0.006,-3.39623 -0.15224,-7.08789 -0.32504,-8.20364 l -0.3142,-2.0283 1.21233,-2.19159 c 5.25882,-9.50722 7.77074,-18.6374 7.43728,-27.03401 -0.21671,-5.45716 -1.52698,-9.36909 -4.41524,-13.183694 -3.15473,-4.166528 -8.70059,-7.237152 -15.22594,-8.429976 -4.96872,-0.908276 -12.65577,-0.508651 -19.44688,1.010791 l -3.30729,0.740006 -3.96875,-1.922363 c -8.4366,-4.086111 -17.03268,-6.214875 -26.72292,-6.617684 -0.95688,-0.03978 -1.91541,-0.05741 -2.87476,-0.05374 z m 46.94753,10.013859 c 8.64816,-0.0017 14.5329,2.061741 19.17712,6.723621 4.03499,4.050324 5.71349,8.652244 5.70249,15.633154 -0.008,5.35247 -1.42621,11.47488 -4.03696,17.42994 -0.58199,1.3275 -1.14214,2.50065 -1.24437,2.60656 -0.10224,0.10591 -0.34037,-0.4894 -0.52916,-1.32291 -1.22418,-5.40485 -4.83679,-13.86953 -8.21035,-19.23707 -4.60075,-7.32004 -11.58906,-14.718743 -18.3839,-19.462897 -1.66551,-1.162865 -1.9508,-1.458729 -1.54822,-1.607653 1.07354,-0.397126 5.41353,-0.762038 9.07335,-0.762745 z M 92.697969,133.56965 v 17.87436 h 12.155851 v -3.16157 h -8.892484 v -4.63021 h 7.832084 v -3.16156 h -7.832084 v -3.75946 h 8.511624 v -3.16156 z m 14.086481,0 4.86792,8.73796 -5.16713,9.1364 h 3.91604 l 3.20859,-6.09937 3.04581,6.09937 h 4.07934 l -5.22139,-9.28574 4.89479,-8.58862 h -3.86126 l -2.93729,5.77587 -2.85512,-5.77587 z m 3.17758,18.74769 v 1.31206 H 111.04 v -1.31206 z m 9.55136,0 v 9.41803 h 1.07797 v -9.41803 z m -12.7553,0.64285 v 1.91513 h -0.86816 v 0.95757 h 0.86816 v 4.5253 c 0,0.99688 0.40448,1.46916 1.25781,1.46916 0.0898,0 0.1346,1e-4 0.37413,-0.0393 0.0748,0 0.17964,-0.0134 0.47904,-0.0527 v -0.90486 h -0.37413 c -0.46408,0.0131 -0.65888,-0.14445 -0.65888,-0.53795 v -4.45967 h 1.048 v -0.95757 h -1.048 v -1.91513 z m -10.868585,1.71824 c -0.868293,0 -1.377269,0.3147 -1.96112,1.20665 v -1.00976 h -1.018026 v 9.57513 h 1.07797 v -3.47576 c 0.434147,0.66897 0.958391,0.95757 1.751832,0.95757 1.691675,0 2.799312,-1.49554 2.799312,-3.79099 0,-2.07245 -1.063086,-3.46284 -2.649968,-3.46284 z m 6.467305,0 c -1.00303,0 -1.76622,0.31513 -2.1854,0.90538 -0.254494,0.36727 -0.344199,0.6951 -0.389119,1.37717 h 0.988049 c 0.14971,-0.97064 0.56839,-1.32498 1.51154,-1.32498 0.98805,0 1.48208,0.38025 1.48208,1.14101 0,0.49845 -0.16423,0.73458 -0.56844,0.78704 l -1.7818,0.23616 c -1.24256,0.17052 -1.946138,0.93131 -1.946138,2.12493 0,1.21987 0.808478,2.00712 2.051038,2.00712 0.91321,0 1.5717,-0.32817 2.27531,-1.11518 0.0749,0.76078 0.37439,1.04955 1.10795,1.04955 0.16467,0 0.29941,-0.0264 0.49402,-0.092 0.0749,-0.0262 0.09,-0.0262 0.13488,-0.0393 v -0.83923 c -0.26947,0.0525 -0.28431,0.0522 -0.37414,0.0522 -0.22456,0 -0.34468,-0.14437 -0.34468,-0.4067 v -3.94808 c 0,-1.19364 -0.92816,-1.91513 -2.45515,-1.91513 z m 12.84469,0 c -1.00302,0 -1.76622,0.31513 -2.18539,0.90538 -0.2545,0.36727 -0.3442,0.6951 -0.38912,1.37717 h 0.98805 c 0.1497,-0.97064 0.5689,-1.32498 1.51205,-1.32498 0.98805,0 1.48208,0.38025 1.48208,1.14101 0,0.49845 -0.16476,0.73458 -0.56896,0.78704 l -1.7818,0.23616 c -1.24257,0.17052 -1.94613,0.93131 -1.94613,2.12493 0,1.21987 0.80846,2.00712 2.05103,2.00712 0.9132,0 1.57221,-0.32817 2.27583,-1.11518 0.0748,0.76078 0.37387,1.04955 1.10743,1.04955 0.16468,0 0.29942,-0.0264 0.49403,-0.092 0.0749,-0.0262 0.09,-0.0262 0.13487,-0.0393 v -0.83923 c -0.26946,0.0525 -0.28431,0.0522 -0.37414,0.0522 -0.22455,0 -0.34416,-0.14437 -0.34416,-0.4067 v -3.94808 c 0,-1.19364 -0.92867,-1.91513 -2.45567,-1.91513 z m -5.23947,0.19689 v 6.86005 H 111.04 v -6.86005 z m -14.251842,0.82631 c 1.122793,0 1.706356,0.85243 1.706356,2.47892 0,1.74453 -0.628475,2.74143 -1.706356,2.74143 -1.107823,0 -1.766817,-0.90506 -1.766817,-2.40037 0,-1.87571 0.599112,-2.81998 1.766817,-2.81998 z m 8.024312,2.53163 v 1.12809 c 0,0.87882 -0.91321,1.61334 -1.99109,1.61334 -0.74853,0 -1.1529,-0.40679 -1.1529,-1.15445 0,-0.68207 0.3891,-1.00966 1.36219,-1.15394 1.24255,-0.18362 1.55724,-0.2494 1.7818,-0.43304 z m 12.8447,0 v 1.12809 c 0,0.87882 -0.91321,1.61334 -1.99109,1.61334 -0.74852,0 -1.15291,-0.40679 -1.15291,-1.15445 0,-0.68207 0.38911,-1.00966 1.3622,-1.15394 1.24254,-0.18362 1.55724,-0.2494 1.7818,-0.43304 z m -75.406251,15.47605 2.336291,4.72581 c 2.575782,5.20943 5.477823,9.74848 8.687325,13.58884 2.853675,3.41459 8.148336,8.48272 11.327991,10.84326 1.441055,1.06984 2.732898,2.04399 2.871142,2.16525 0.326805,0.28667 -9.030585,0.22521 -11.099064,-0.0729 -2.468406,-0.3557 -6.153217,-1.48947 -8.334375,-2.5647 -2.702773,-1.33236 -5.940901,-4.50508 -7.100858,-6.95771 -1.184929,-2.50543 -1.677424,-4.93037 -1.660364,-8.17573 0.01983,-3.77278 1.103301,-9.11308 2.541964,-12.5305 z" /></g></svg>
